# xmcd
#
# Track frame offsets: 
#        150
#        17710
#        45382
#        88817
#        111659
#        133218
#        146860
#        171258
#        188658
#        233202
#        252672
#        279679
#
# Disc length: 3905 seconds
#
# Revision: 0
# Processed by: cddbd v1.5.2PL0 Copyright (c) Steve Scherf et al.
# Submitted via: ExactAudioCopy v0.99pb4
#
DISCID=b90f3f0c
DTITLE=Williams Wetsox - Vaganga, aba ned vagess'n [CD2)
DYEAR=2010
DGENRE=Blues
TTITLE0=Bluesig's Oberland
TTITLE1=Am Kochel und am Walchensee
TTITLE2=I wui hoam
TTITLE3=Wach auf
TTITLE4=Da letzte Tanz
TTITLE5=Am Boch drunt
TTITLE6=Knecht bei de Bauern
TTITLE7=Fahr ma furt
TTITLE8=Frühling im Westend
TTITLE9=Geh' her (dann samma oana mehr)
TTITLE10=Mond
TTITLE11=Baby Oper
EXTD=
EXTT0=
EXTT1=
EXTT2=
EXTT3=
EXTT4=
EXTT5=
EXTT6=
EXTT7=
EXTT8=
EXTT9=
EXTT10=
EXTT11=
PLAYORDER=
